<mxfile host="Electron" modified="2024-11-03T17:41:41.310Z" agent="Mozilla/5.0 (Windows NT 10.0; Win64; x64) AppleWebKit/537.36 (KHTML, like Gecko) draw.io/21.2.8 Chrome/112.0.5615.165 Electron/24.2.0 Safari/537.36" etag="Ovq26X8UltdXIfMFBWAh" version="21.2.8" type="device">
  <diagram name="Page-1" id="mEDt97b2BQJ9ObCC_nwW">
    <mxGraphModel dx="4568" dy="1343" grid="1" gridSize="10" guides="1" tooltips="1" connect="1" arrows="1" fold="1" page="1" pageScale="1" pageWidth="1654" pageHeight="2336" math="0" shadow="0">
      <root>
        <mxCell id="0" />
        <mxCell id="1" parent="0" />
        <mxCell id="TJQ8qajKtdntS8sscnsx-1" value="USER" style="shape=table;startSize=30;container=1;collapsible=0;childLayout=tableLayout;fontStyle=1;fillColor=none;fontSize=16;align=left;strokeWidth=2;swimlaneLine=1;swimlaneHead=0;resizeLast=0;fixedRows=0;columnLines=1;strokeColor=#E3E8EB;" parent="1" vertex="1">
          <mxGeometry x="-921" y="100" width="969" height="60" as="geometry" />
        </mxCell>
        <mxCell id="TJQ8qajKtdntS8sscnsx-2" value="" style="shape=tableRow;horizontal=0;startSize=0;swimlaneHead=0;swimlaneBody=0;top=0;left=0;bottom=0;right=0;collapsible=0;dropTarget=0;fillColor=#E3E8EB;points=[[0,0.5],[1,0.5]];portConstraint=eastwest;fontSize=16;" parent="TJQ8qajKtdntS8sscnsx-1" vertex="1">
          <mxGeometry y="30" width="969" height="30" as="geometry" />
        </mxCell>
        <mxCell id="TJQ8qajKtdntS8sscnsx-3" value="&lt;u style=&quot;font-size: 16px;&quot;&gt;&lt;font style=&quot;font-size: 16px;&quot;&gt;User_Id&lt;/font&gt;&lt;/u&gt;" style="shape=partialRectangle;html=1;whiteSpace=wrap;connectable=0;strokeColor=inherit;overflow=hidden;fillColor=none;top=1;left=1;bottom=1;right=1;pointerEvents=1;fontSize=16;" parent="TJQ8qajKtdntS8sscnsx-2" vertex="1">
          <mxGeometry width="117" height="30" as="geometry">
            <mxRectangle width="117" height="30" as="alternateBounds" />
          </mxGeometry>
        </mxCell>
        <mxCell id="TJQ8qajKtdntS8sscnsx-4" value="&lt;span style=&quot;border-color: var(--border-color); font-size: 16px;&quot;&gt;&lt;font style=&quot;border-color: var(--border-color); font-size: 16px;&quot;&gt;NIC&lt;/font&gt;&lt;/span&gt;" style="shape=partialRectangle;html=1;whiteSpace=wrap;connectable=0;strokeColor=inherit;overflow=hidden;fillColor=none;top=1;left=1;bottom=1;right=1;pointerEvents=1;fontSize=16;" parent="TJQ8qajKtdntS8sscnsx-2" vertex="1">
          <mxGeometry x="117" width="107" height="30" as="geometry">
            <mxRectangle width="107" height="30" as="alternateBounds" />
          </mxGeometry>
        </mxCell>
        <mxCell id="TJQ8qajKtdntS8sscnsx-5" value="F_Name" style="shape=partialRectangle;html=1;whiteSpace=wrap;connectable=0;strokeColor=inherit;overflow=hidden;fillColor=none;top=1;left=1;bottom=1;right=1;pointerEvents=1;fontSize=16;" parent="TJQ8qajKtdntS8sscnsx-2" vertex="1">
          <mxGeometry x="224" width="78" height="30" as="geometry">
            <mxRectangle width="78" height="30" as="alternateBounds" />
          </mxGeometry>
        </mxCell>
        <mxCell id="TJQ8qajKtdntS8sscnsx-6" value="L_Name" style="shape=partialRectangle;html=1;whiteSpace=wrap;connectable=0;strokeColor=inherit;overflow=hidden;fillColor=none;top=1;left=1;bottom=1;right=1;pointerEvents=1;fontSize=16;" parent="TJQ8qajKtdntS8sscnsx-2" vertex="1">
          <mxGeometry x="302" width="88" height="30" as="geometry">
            <mxRectangle width="88" height="30" as="alternateBounds" />
          </mxGeometry>
        </mxCell>
        <mxCell id="TJQ8qajKtdntS8sscnsx-7" value="Gender" style="shape=partialRectangle;html=1;whiteSpace=wrap;connectable=0;strokeColor=inherit;overflow=hidden;fillColor=none;top=1;left=1;bottom=1;right=1;pointerEvents=1;fontSize=16;" parent="TJQ8qajKtdntS8sscnsx-2" vertex="1">
          <mxGeometry x="390" width="98" height="30" as="geometry">
            <mxRectangle width="98" height="30" as="alternateBounds" />
          </mxGeometry>
        </mxCell>
        <mxCell id="TJQ8qajKtdntS8sscnsx-8" value="Email" style="shape=partialRectangle;html=1;whiteSpace=wrap;connectable=0;strokeColor=inherit;overflow=hidden;fillColor=none;top=1;left=1;bottom=1;right=1;pointerEvents=1;fontSize=16;" parent="TJQ8qajKtdntS8sscnsx-2" vertex="1">
          <mxGeometry x="488" width="87" height="30" as="geometry">
            <mxRectangle width="87" height="30" as="alternateBounds" />
          </mxGeometry>
        </mxCell>
        <mxCell id="TJQ8qajKtdntS8sscnsx-9" value="DOB" style="shape=partialRectangle;html=1;whiteSpace=wrap;connectable=0;strokeColor=inherit;overflow=hidden;fillColor=none;top=1;left=1;bottom=1;right=1;pointerEvents=1;fontSize=16;" parent="TJQ8qajKtdntS8sscnsx-2" vertex="1">
          <mxGeometry x="575" width="68" height="30" as="geometry">
            <mxRectangle width="68" height="30" as="alternateBounds" />
          </mxGeometry>
        </mxCell>
        <mxCell id="TJQ8qajKtdntS8sscnsx-10" value="Address" style="shape=partialRectangle;html=1;whiteSpace=wrap;connectable=0;strokeColor=inherit;overflow=hidden;fillColor=none;top=1;left=1;bottom=1;right=1;pointerEvents=1;fontSize=16;" parent="TJQ8qajKtdntS8sscnsx-2" vertex="1">
          <mxGeometry x="643" width="84" height="30" as="geometry">
            <mxRectangle width="84" height="30" as="alternateBounds" />
          </mxGeometry>
        </mxCell>
        <mxCell id="TJQ8qajKtdntS8sscnsx-11" value="Contact_no" style="shape=partialRectangle;html=1;whiteSpace=wrap;connectable=0;strokeColor=inherit;overflow=hidden;fillColor=none;top=1;left=1;bottom=1;right=1;pointerEvents=1;fontSize=16;" parent="TJQ8qajKtdntS8sscnsx-2" vertex="1">
          <mxGeometry x="727" width="121" height="30" as="geometry">
            <mxRectangle width="121" height="30" as="alternateBounds" />
          </mxGeometry>
        </mxCell>
        <mxCell id="TVRoV4i9c3XbtMwJqWjD-2" value="Role" style="shape=partialRectangle;html=1;whiteSpace=wrap;connectable=0;strokeColor=inherit;overflow=hidden;fillColor=none;top=1;left=1;bottom=1;right=1;pointerEvents=1;fontSize=16;" parent="TJQ8qajKtdntS8sscnsx-2" vertex="1">
          <mxGeometry x="848" width="121" height="30" as="geometry">
            <mxRectangle width="121" height="30" as="alternateBounds" />
          </mxGeometry>
        </mxCell>
        <mxCell id="TJQ8qajKtdntS8sscnsx-12" value="ADMIN" style="shape=table;startSize=30;container=1;collapsible=0;childLayout=tableLayout;fontStyle=1;fillColor=none;fontSize=16;align=left;swimlaneBody=1;swimlaneHead=0;" parent="1" vertex="1">
          <mxGeometry x="-921" y="260" width="100" height="70" as="geometry" />
        </mxCell>
        <mxCell id="TJQ8qajKtdntS8sscnsx-13" value="" style="shape=tableRow;horizontal=0;startSize=0;swimlaneHead=0;swimlaneBody=0;strokeColor=#36393d;top=0;left=0;bottom=0;right=0;collapsible=0;dropTarget=0;fillColor=#eeeeee;points=[[0,0.5],[1,0.5]];portConstraint=eastwest;fontSize=16;" parent="TJQ8qajKtdntS8sscnsx-12" vertex="1">
          <mxGeometry y="30" width="100" height="40" as="geometry" />
        </mxCell>
        <mxCell id="TJQ8qajKtdntS8sscnsx-14" value="&lt;font style=&quot;font-size: 16px;&quot;&gt;&lt;u style=&quot;font-size: 16px;&quot;&gt;User_Id&lt;/u&gt;&lt;/font&gt;" style="shape=partialRectangle;html=1;whiteSpace=wrap;connectable=0;overflow=hidden;top=1;left=1;bottom=1;right=1;pointerEvents=1;fontSize=16;fillColor=#E3E8EB;" parent="TJQ8qajKtdntS8sscnsx-13" vertex="1">
          <mxGeometry width="100" height="40" as="geometry">
            <mxRectangle width="100" height="40" as="alternateBounds" />
          </mxGeometry>
        </mxCell>
        <mxCell id="TJQ8qajKtdntS8sscnsx-16" value="STUDENT" style="shape=table;startSize=30;container=1;collapsible=0;childLayout=tableLayout;fontStyle=1;fillColor=none;fontSize=16;swimlaneHead=0;align=left;" parent="1" vertex="1">
          <mxGeometry x="-921" y="430" width="407" height="70" as="geometry" />
        </mxCell>
        <mxCell id="TJQ8qajKtdntS8sscnsx-17" value="" style="shape=tableRow;horizontal=0;startSize=0;swimlaneHead=0;swimlaneBody=0;strokeColor=inherit;top=0;left=0;bottom=0;right=0;collapsible=0;dropTarget=0;fillColor=none;points=[[0,0.5],[1,0.5]];portConstraint=eastwest;fontSize=16;" parent="TJQ8qajKtdntS8sscnsx-16" vertex="1">
          <mxGeometry y="30" width="407" height="40" as="geometry" />
        </mxCell>
        <mxCell id="TJQ8qajKtdntS8sscnsx-18" value="&lt;u style=&quot;font-size: 16px;&quot;&gt;User_Id&lt;/u&gt;" style="shape=partialRectangle;html=1;whiteSpace=wrap;connectable=0;strokeColor=inherit;overflow=hidden;fillColor=#E3E8EB;top=1;left=1;bottom=1;right=1;pointerEvents=1;fontSize=16;" parent="TJQ8qajKtdntS8sscnsx-17" vertex="1">
          <mxGeometry width="130" height="40" as="geometry">
            <mxRectangle width="130" height="40" as="alternateBounds" />
          </mxGeometry>
        </mxCell>
        <mxCell id="TJQ8qajKtdntS8sscnsx-19" value="Status" style="shape=partialRectangle;html=1;whiteSpace=wrap;connectable=0;strokeColor=inherit;overflow=hidden;fillColor=#E3E8EB;top=1;left=1;bottom=1;right=1;pointerEvents=1;fontSize=16;" parent="TJQ8qajKtdntS8sscnsx-17" vertex="1">
          <mxGeometry x="130" width="81" height="40" as="geometry">
            <mxRectangle width="81" height="40" as="alternateBounds" />
          </mxGeometry>
        </mxCell>
        <mxCell id="TJQ8qajKtdntS8sscnsx-20" value="GPA" style="shape=partialRectangle;html=1;whiteSpace=wrap;connectable=0;strokeColor=inherit;overflow=hidden;fillColor=#E3E8EB;top=1;left=1;bottom=1;right=1;pointerEvents=1;fontSize=16;" parent="TJQ8qajKtdntS8sscnsx-17" vertex="1">
          <mxGeometry x="211" width="98" height="40" as="geometry">
            <mxRectangle width="98" height="40" as="alternateBounds" />
          </mxGeometry>
        </mxCell>
        <mxCell id="TJQ8qajKtdntS8sscnsx-21" value="Dep_ID" style="shape=partialRectangle;html=1;whiteSpace=wrap;connectable=0;strokeColor=inherit;overflow=hidden;fillColor=#E3E8EB;top=1;left=1;bottom=1;right=1;pointerEvents=1;fontSize=16;" parent="TJQ8qajKtdntS8sscnsx-17" vertex="1">
          <mxGeometry x="309" width="98" height="40" as="geometry">
            <mxRectangle width="98" height="40" as="alternateBounds" />
          </mxGeometry>
        </mxCell>
        <mxCell id="TJQ8qajKtdntS8sscnsx-22" value="LECTURER" style="shape=table;startSize=30;container=1;collapsible=0;childLayout=tableLayout;fontStyle=1;fillColor=none;fontSize=16;align=left;swimlaneHead=0;" parent="1" vertex="1">
          <mxGeometry x="-921" y="570" width="194" height="70" as="geometry" />
        </mxCell>
        <mxCell id="TJQ8qajKtdntS8sscnsx-23" value="" style="shape=tableRow;horizontal=0;startSize=0;swimlaneHead=0;swimlaneBody=0;strokeColor=inherit;top=0;left=0;bottom=0;right=0;collapsible=0;dropTarget=0;fillColor=none;points=[[0,0.5],[1,0.5]];portConstraint=eastwest;fontSize=16;" parent="TJQ8qajKtdntS8sscnsx-22" vertex="1">
          <mxGeometry y="30" width="194" height="40" as="geometry" />
        </mxCell>
        <mxCell id="TJQ8qajKtdntS8sscnsx-24" value="&lt;font style=&quot;font-size: 16px;&quot;&gt;&lt;u style=&quot;font-size: 16px;&quot;&gt;User_Id&lt;/u&gt;&lt;/font&gt;" style="shape=partialRectangle;html=1;whiteSpace=wrap;connectable=0;strokeColor=inherit;overflow=hidden;fillColor=#E3E8EB;top=1;left=1;bottom=1;right=1;pointerEvents=1;fontSize=16;" parent="TJQ8qajKtdntS8sscnsx-23" vertex="1">
          <mxGeometry width="98" height="40" as="geometry">
            <mxRectangle width="98" height="40" as="alternateBounds" />
          </mxGeometry>
        </mxCell>
        <mxCell id="TJQ8qajKtdntS8sscnsx-25" value="&lt;font style=&quot;font-size: 16px;&quot;&gt;Position&lt;/font&gt;" style="shape=partialRectangle;html=1;whiteSpace=wrap;connectable=0;strokeColor=inherit;overflow=hidden;fillColor=#E3E8EB;top=1;left=1;bottom=1;right=1;pointerEvents=1;fontSize=16;" parent="TJQ8qajKtdntS8sscnsx-23" vertex="1">
          <mxGeometry x="98" width="96" height="40" as="geometry">
            <mxRectangle width="96" height="40" as="alternateBounds" />
          </mxGeometry>
        </mxCell>
        <mxCell id="TJQ8qajKtdntS8sscnsx-26" value="DEAN" style="shape=table;startSize=30;container=1;collapsible=0;childLayout=tableLayout;fontStyle=1;fillColor=none;fontSize=16;swimlaneHead=0;align=left;" parent="1" vertex="1">
          <mxGeometry x="-921" y="710" width="105" height="70" as="geometry" />
        </mxCell>
        <mxCell id="TJQ8qajKtdntS8sscnsx-27" value="" style="shape=tableRow;horizontal=0;startSize=0;swimlaneHead=0;swimlaneBody=0;strokeColor=inherit;top=0;left=0;bottom=0;right=0;collapsible=0;dropTarget=0;fillColor=none;points=[[0,0.5],[1,0.5]];portConstraint=eastwest;fontSize=16;" parent="TJQ8qajKtdntS8sscnsx-26" vertex="1">
          <mxGeometry y="30" width="105" height="40" as="geometry" />
        </mxCell>
        <mxCell id="TJQ8qajKtdntS8sscnsx-28" value="&lt;font style=&quot;font-size: 16px;&quot;&gt;&lt;u style=&quot;font-size: 16px;&quot;&gt;User_Id&lt;/u&gt;&lt;/font&gt;" style="shape=partialRectangle;html=1;whiteSpace=wrap;connectable=0;strokeColor=inherit;overflow=hidden;fillColor=#E3E8EB;top=0;left=0;bottom=0;right=0;pointerEvents=1;fontSize=16;" parent="TJQ8qajKtdntS8sscnsx-27" vertex="1">
          <mxGeometry width="105" height="40" as="geometry">
            <mxRectangle width="105" height="40" as="alternateBounds" />
          </mxGeometry>
        </mxCell>
        <mxCell id="TJQ8qajKtdntS8sscnsx-29" value="TO" style="shape=table;startSize=30;container=1;collapsible=0;childLayout=tableLayout;fontStyle=1;fillColor=none;fontSize=16;swimlaneHead=0;align=left;" parent="1" vertex="1">
          <mxGeometry x="-921" y="850" width="220" height="70" as="geometry" />
        </mxCell>
        <mxCell id="TJQ8qajKtdntS8sscnsx-30" value="" style="shape=tableRow;horizontal=0;startSize=0;swimlaneHead=0;swimlaneBody=0;strokeColor=inherit;top=0;left=0;bottom=0;right=0;collapsible=0;dropTarget=0;fillColor=none;points=[[0,0.5],[1,0.5]];portConstraint=eastwest;fontSize=16;" parent="TJQ8qajKtdntS8sscnsx-29" vertex="1">
          <mxGeometry y="30" width="220" height="40" as="geometry" />
        </mxCell>
        <mxCell id="TJQ8qajKtdntS8sscnsx-31" value="&lt;font style=&quot;font-size: 16px;&quot;&gt;&lt;u style=&quot;font-size: 16px;&quot;&gt;User_Id&lt;/u&gt;&lt;/font&gt;" style="shape=partialRectangle;html=1;whiteSpace=wrap;connectable=0;strokeColor=inherit;overflow=hidden;fillColor=#E3E8EB;top=1;left=1;bottom=1;right=1;pointerEvents=1;fontSize=16;" parent="TJQ8qajKtdntS8sscnsx-30" vertex="1">
          <mxGeometry width="130" height="40" as="geometry">
            <mxRectangle width="130" height="40" as="alternateBounds" />
          </mxGeometry>
        </mxCell>
        <mxCell id="TJQ8qajKtdntS8sscnsx-32" value="&lt;font style=&quot;font-size: 16px;&quot;&gt;Role&lt;/font&gt;" style="shape=partialRectangle;html=1;whiteSpace=wrap;connectable=0;strokeColor=inherit;overflow=hidden;fillColor=#E3E8EB;top=1;left=1;bottom=1;right=1;pointerEvents=1;fontSize=16;" parent="TJQ8qajKtdntS8sscnsx-30" vertex="1">
          <mxGeometry x="130" width="90" height="40" as="geometry">
            <mxRectangle width="90" height="40" as="alternateBounds" />
          </mxGeometry>
        </mxCell>
        <mxCell id="TJQ8qajKtdntS8sscnsx-33" value="DEPARTMENT" style="shape=table;startSize=31;container=1;collapsible=0;childLayout=tableLayout;fontStyle=1;fillColor=none;fontSize=16;swimlaneHead=0;align=left;" parent="1" vertex="1">
          <mxGeometry x="-921" y="1034" width="510" height="70" as="geometry" />
        </mxCell>
        <mxCell id="TJQ8qajKtdntS8sscnsx-34" value="" style="shape=tableRow;horizontal=0;startSize=0;swimlaneHead=0;swimlaneBody=0;strokeColor=inherit;top=0;left=0;bottom=0;right=0;collapsible=0;dropTarget=0;fillColor=none;points=[[0,0.5],[1,0.5]];portConstraint=eastwest;fontSize=16;" parent="TJQ8qajKtdntS8sscnsx-33" vertex="1">
          <mxGeometry y="31" width="510" height="39" as="geometry" />
        </mxCell>
        <mxCell id="TJQ8qajKtdntS8sscnsx-35" value="&lt;font style=&quot;font-size: 16px;&quot;&gt;&lt;u style=&quot;font-size: 16px;&quot;&gt;DepID&lt;/u&gt;&lt;/font&gt;" style="shape=partialRectangle;html=1;whiteSpace=wrap;connectable=0;strokeColor=inherit;overflow=hidden;fillColor=#E3E8EB;top=1;left=1;bottom=1;right=1;pointerEvents=1;fontSize=16;" parent="TJQ8qajKtdntS8sscnsx-34" vertex="1">
          <mxGeometry width="126" height="39" as="geometry">
            <mxRectangle width="126" height="39" as="alternateBounds" />
          </mxGeometry>
        </mxCell>
        <mxCell id="TJQ8qajKtdntS8sscnsx-36" value="&lt;font style=&quot;font-size: 16px;&quot;&gt;Name&lt;/font&gt;" style="shape=partialRectangle;html=1;whiteSpace=wrap;connectable=0;strokeColor=inherit;overflow=hidden;fillColor=#E3E8EB;top=1;left=1;bottom=1;right=1;pointerEvents=1;fontSize=16;" parent="TJQ8qajKtdntS8sscnsx-34" vertex="1">
          <mxGeometry x="126" width="128" height="39" as="geometry">
            <mxRectangle width="128" height="39" as="alternateBounds" />
          </mxGeometry>
        </mxCell>
        <mxCell id="TJQ8qajKtdntS8sscnsx-37" value="DEAN_ID" style="shape=partialRectangle;html=1;whiteSpace=wrap;connectable=0;strokeColor=inherit;overflow=hidden;fillColor=#E3E8EB;top=1;left=1;bottom=1;right=1;pointerEvents=1;fontSize=16;" parent="TJQ8qajKtdntS8sscnsx-34" vertex="1">
          <mxGeometry x="254" width="128" height="39" as="geometry">
            <mxRectangle width="128" height="39" as="alternateBounds" />
          </mxGeometry>
        </mxCell>
        <mxCell id="TJQ8qajKtdntS8sscnsx-38" value="ADMIN_ID&amp;nbsp;" style="shape=partialRectangle;html=1;whiteSpace=wrap;connectable=0;strokeColor=inherit;overflow=hidden;fillColor=#E3E8EB;top=1;left=1;bottom=1;right=1;pointerEvents=1;fontSize=16;" parent="TJQ8qajKtdntS8sscnsx-34" vertex="1">
          <mxGeometry x="382" width="128" height="39" as="geometry">
            <mxRectangle width="128" height="39" as="alternateBounds" />
          </mxGeometry>
        </mxCell>
        <mxCell id="TJQ8qajKtdntS8sscnsx-39" value="COURSE_UNIT" style="shape=table;startSize=30;container=1;collapsible=0;childLayout=tableLayout;fontStyle=1;fillColor=none;fontSize=16;swimlaneHead=0;align=left;" parent="1" vertex="1">
          <mxGeometry x="-921" y="1214" width="410" height="70" as="geometry" />
        </mxCell>
        <mxCell id="TJQ8qajKtdntS8sscnsx-40" value="" style="shape=tableRow;horizontal=0;startSize=0;swimlaneHead=0;swimlaneBody=0;strokeColor=inherit;top=0;left=0;bottom=0;right=0;collapsible=0;dropTarget=0;fillColor=none;points=[[0,0.5],[1,0.5]];portConstraint=eastwest;fontSize=16;" parent="TJQ8qajKtdntS8sscnsx-39" vertex="1">
          <mxGeometry y="30" width="410" height="40" as="geometry" />
        </mxCell>
        <mxCell id="TJQ8qajKtdntS8sscnsx-41" value="&lt;font style=&quot;font-size: 16px;&quot;&gt;&lt;u style=&quot;font-size: 16px;&quot;&gt;CourseID&lt;/u&gt;&lt;/font&gt;" style="shape=partialRectangle;html=1;whiteSpace=wrap;connectable=0;strokeColor=inherit;overflow=hidden;fillColor=#E3E8EB;top=1;left=1;bottom=1;right=1;pointerEvents=1;fontSize=16;" parent="TJQ8qajKtdntS8sscnsx-40" vertex="1">
          <mxGeometry width="109" height="40" as="geometry">
            <mxRectangle width="109" height="40" as="alternateBounds" />
          </mxGeometry>
        </mxCell>
        <mxCell id="TJQ8qajKtdntS8sscnsx-42" value="&lt;font style=&quot;font-size: 16px;&quot;&gt;Name&lt;/font&gt;" style="shape=partialRectangle;html=1;whiteSpace=wrap;connectable=0;strokeColor=inherit;overflow=hidden;fillColor=#E3E8EB;top=1;left=1;bottom=1;right=1;pointerEvents=1;fontSize=16;" parent="TJQ8qajKtdntS8sscnsx-40" vertex="1">
          <mxGeometry x="109" width="107" height="40" as="geometry">
            <mxRectangle width="107" height="40" as="alternateBounds" />
          </mxGeometry>
        </mxCell>
        <mxCell id="TJQ8qajKtdntS8sscnsx-43" value="&lt;font style=&quot;font-size: 16px;&quot;&gt;Credit&lt;/font&gt;" style="shape=partialRectangle;html=1;whiteSpace=wrap;connectable=0;strokeColor=inherit;overflow=hidden;fillColor=#E3E8EB;top=1;left=1;bottom=1;right=1;pointerEvents=1;fontSize=16;" parent="TJQ8qajKtdntS8sscnsx-40" vertex="1">
          <mxGeometry x="216" width="109" height="40" as="geometry">
            <mxRectangle width="109" height="40" as="alternateBounds" />
          </mxGeometry>
        </mxCell>
        <mxCell id="TJQ8qajKtdntS8sscnsx-44" value="&lt;font style=&quot;font-size: 16px;&quot;&gt;Type&lt;/font&gt;" style="shape=partialRectangle;html=1;whiteSpace=wrap;connectable=0;strokeColor=inherit;overflow=hidden;fillColor=#E3E8EB;top=1;left=1;bottom=1;right=1;pointerEvents=1;fontSize=16;" parent="TJQ8qajKtdntS8sscnsx-40" vertex="1">
          <mxGeometry x="325" width="85" height="40" as="geometry">
            <mxRectangle width="85" height="40" as="alternateBounds" />
          </mxGeometry>
        </mxCell>
        <mxCell id="TJQ8qajKtdntS8sscnsx-45" value="ATTENDANCE" style="shape=table;startSize=30;container=1;collapsible=0;childLayout=tableLayout;fontStyle=1;fillColor=none;fontSize=16;swimlaneHead=0;align=left;" parent="1" vertex="1">
          <mxGeometry x="-920" y="1434" width="817" height="56" as="geometry" />
        </mxCell>
        <mxCell id="TJQ8qajKtdntS8sscnsx-46" value="" style="shape=tableRow;horizontal=0;startSize=0;swimlaneHead=0;swimlaneBody=0;strokeColor=inherit;top=0;left=0;bottom=0;right=0;collapsible=0;dropTarget=0;fillColor=none;points=[[0,0.5],[1,0.5]];portConstraint=eastwest;fontSize=16;" parent="TJQ8qajKtdntS8sscnsx-45" vertex="1">
          <mxGeometry y="30" width="817" height="26" as="geometry" />
        </mxCell>
        <mxCell id="TJQ8qajKtdntS8sscnsx-47" value="&lt;font style=&quot;font-size: 16px;&quot;&gt;&lt;span style=&quot;font-size: 16px;&quot;&gt;&lt;u&gt;Stu_Id&lt;/u&gt;&lt;/span&gt;&lt;/font&gt;" style="shape=partialRectangle;html=1;whiteSpace=wrap;connectable=0;strokeColor=inherit;overflow=hidden;fillColor=#E3E8EB;top=1;left=1;bottom=1;right=1;pointerEvents=1;fontSize=16;" parent="TJQ8qajKtdntS8sscnsx-46" vertex="1">
          <mxGeometry width="122" height="26" as="geometry">
            <mxRectangle width="122" height="26" as="alternateBounds" />
          </mxGeometry>
        </mxCell>
        <mxCell id="TJQ8qajKtdntS8sscnsx-48" value="&lt;font style=&quot;font-size: 16px;&quot;&gt;&lt;span style=&quot;font-size: 16px;&quot;&gt;&lt;u&gt;CourseID&lt;/u&gt;&lt;/span&gt;&lt;/font&gt;" style="shape=partialRectangle;html=1;whiteSpace=wrap;connectable=0;strokeColor=inherit;overflow=hidden;fillColor=#E3E8EB;top=1;left=1;bottom=1;right=1;pointerEvents=1;fontSize=16;" parent="TJQ8qajKtdntS8sscnsx-46" vertex="1">
          <mxGeometry x="122" width="113" height="26" as="geometry">
            <mxRectangle width="113" height="26" as="alternateBounds" />
          </mxGeometry>
        </mxCell>
        <mxCell id="TJQ8qajKtdntS8sscnsx-49" value="&lt;u&gt;A_Status&lt;/u&gt;" style="shape=partialRectangle;html=1;whiteSpace=wrap;connectable=0;strokeColor=inherit;overflow=hidden;fillColor=#E3E8EB;top=1;left=1;bottom=1;right=1;pointerEvents=1;fontSize=16;" parent="TJQ8qajKtdntS8sscnsx-46" vertex="1">
          <mxGeometry x="235" width="116" height="26" as="geometry">
            <mxRectangle width="116" height="26" as="alternateBounds" />
          </mxGeometry>
        </mxCell>
        <mxCell id="pRjLdqucPD1GhFJBlhZP-8" value="A_Type" style="shape=partialRectangle;html=1;whiteSpace=wrap;connectable=0;strokeColor=inherit;overflow=hidden;fillColor=#E3E8EB;top=1;left=1;bottom=1;right=1;pointerEvents=1;fontSize=16;" parent="TJQ8qajKtdntS8sscnsx-46" vertex="1">
          <mxGeometry x="351" width="114" height="26" as="geometry">
            <mxRectangle width="114" height="26" as="alternateBounds" />
          </mxGeometry>
        </mxCell>
        <mxCell id="TJQ8qajKtdntS8sscnsx-50" value="&lt;font style=&quot;font-size: 16px;&quot;&gt;&lt;u&gt;A_Date&lt;/u&gt;&lt;/font&gt;" style="shape=partialRectangle;html=1;whiteSpace=wrap;connectable=0;strokeColor=inherit;overflow=hidden;fillColor=#E3E8EB;top=1;left=1;bottom=1;right=1;pointerEvents=1;fontSize=16;" parent="TJQ8qajKtdntS8sscnsx-46" vertex="1">
          <mxGeometry x="465" width="117" height="26" as="geometry">
            <mxRectangle width="117" height="26" as="alternateBounds" />
          </mxGeometry>
        </mxCell>
        <mxCell id="TJQ8qajKtdntS8sscnsx-51" value="DEAN_ID" style="shape=partialRectangle;html=1;whiteSpace=wrap;connectable=0;strokeColor=inherit;overflow=hidden;fillColor=#E3E8EB;top=1;left=1;bottom=1;right=1;pointerEvents=1;fontSize=16;" parent="TJQ8qajKtdntS8sscnsx-46" vertex="1">
          <mxGeometry x="582" width="118" height="26" as="geometry">
            <mxRectangle width="118" height="26" as="alternateBounds" />
          </mxGeometry>
        </mxCell>
        <mxCell id="TJQ8qajKtdntS8sscnsx-52" value="&lt;u&gt;MED_ID&lt;/u&gt;" style="shape=partialRectangle;html=1;whiteSpace=wrap;connectable=0;strokeColor=inherit;overflow=hidden;fillColor=#E3E8EB;top=1;left=1;bottom=1;right=1;pointerEvents=1;fontSize=16;" parent="TJQ8qajKtdntS8sscnsx-46" vertex="1">
          <mxGeometry x="700" width="117" height="26" as="geometry">
            <mxRectangle width="117" height="26" as="alternateBounds" />
          </mxGeometry>
        </mxCell>
        <mxCell id="TJQ8qajKtdntS8sscnsx-53" value="MEDICAL" style="shape=table;startSize=30;container=1;collapsible=0;childLayout=tableLayout;fontStyle=1;fillColor=none;fontSize=16;swimlaneHead=0;align=left;" parent="1" vertex="1">
          <mxGeometry x="-921" y="1624" width="432" height="70" as="geometry" />
        </mxCell>
        <mxCell id="TJQ8qajKtdntS8sscnsx-54" value="" style="shape=tableRow;horizontal=0;startSize=0;swimlaneHead=0;swimlaneBody=0;strokeColor=inherit;top=0;left=0;bottom=0;right=0;collapsible=0;dropTarget=0;fillColor=none;points=[[0,0.5],[1,0.5]];portConstraint=eastwest;fontSize=16;" parent="TJQ8qajKtdntS8sscnsx-53" vertex="1">
          <mxGeometry y="30" width="432" height="40" as="geometry" />
        </mxCell>
        <mxCell id="TJQ8qajKtdntS8sscnsx-55" value="&lt;font style=&quot;font-size: 16px;&quot;&gt;&lt;u style=&quot;font-size: 16px;&quot;&gt;MedID&lt;/u&gt;&lt;/font&gt;" style="shape=partialRectangle;html=1;whiteSpace=wrap;connectable=0;strokeColor=inherit;overflow=hidden;fillColor=#E3E8EB;top=1;left=1;bottom=1;right=1;pointerEvents=1;fontSize=16;" parent="TJQ8qajKtdntS8sscnsx-54" vertex="1">
          <mxGeometry width="108" height="40" as="geometry">
            <mxRectangle width="108" height="40" as="alternateBounds" />
          </mxGeometry>
        </mxCell>
        <mxCell id="TJQ8qajKtdntS8sscnsx-56" value="&lt;font style=&quot;font-size: 16px;&quot;&gt;Description&lt;/font&gt;" style="shape=partialRectangle;html=1;whiteSpace=wrap;connectable=0;strokeColor=inherit;overflow=hidden;fillColor=#E3E8EB;top=1;left=1;bottom=1;right=1;pointerEvents=1;fontSize=16;" parent="TJQ8qajKtdntS8sscnsx-54" vertex="1">
          <mxGeometry x="108" width="108" height="40" as="geometry">
            <mxRectangle width="108" height="40" as="alternateBounds" />
          </mxGeometry>
        </mxCell>
        <mxCell id="TJQ8qajKtdntS8sscnsx-57" value="&lt;font style=&quot;font-size: 16px;&quot;&gt;Submitdate&lt;/font&gt;" style="shape=partialRectangle;html=1;whiteSpace=wrap;connectable=0;strokeColor=inherit;overflow=hidden;fillColor=#E3E8EB;top=1;left=1;bottom=1;right=1;pointerEvents=1;fontSize=16;" parent="TJQ8qajKtdntS8sscnsx-54" vertex="1">
          <mxGeometry x="216" width="108" height="40" as="geometry">
            <mxRectangle width="108" height="40" as="alternateBounds" />
          </mxGeometry>
        </mxCell>
        <mxCell id="TJQ8qajKtdntS8sscnsx-58" value="&lt;font style=&quot;font-size: 16px;&quot;&gt;StuID&lt;/font&gt;" style="shape=partialRectangle;html=1;whiteSpace=wrap;connectable=0;strokeColor=inherit;overflow=hidden;fillColor=#E3E8EB;top=1;left=1;bottom=1;right=1;pointerEvents=1;fontSize=16;" parent="TJQ8qajKtdntS8sscnsx-54" vertex="1">
          <mxGeometry x="324" width="108" height="40" as="geometry">
            <mxRectangle width="108" height="40" as="alternateBounds" />
          </mxGeometry>
        </mxCell>
        <mxCell id="TJQ8qajKtdntS8sscnsx-59" value="EXAM_MARK" style="shape=table;startSize=36;container=1;collapsible=0;childLayout=tableLayout;fontStyle=1;fillColor=none;fontSize=16;swimlaneHead=0;align=left;" parent="1" vertex="1">
          <mxGeometry x="-924" y="1824" width="957" height="66" as="geometry" />
        </mxCell>
        <mxCell id="TJQ8qajKtdntS8sscnsx-60" value="" style="shape=tableRow;horizontal=0;startSize=0;swimlaneHead=0;swimlaneBody=0;strokeColor=inherit;top=0;left=0;bottom=0;right=0;collapsible=0;dropTarget=0;fillColor=none;points=[[0,0.5],[1,0.5]];portConstraint=eastwest;fontSize=16;" parent="TJQ8qajKtdntS8sscnsx-59" vertex="1">
          <mxGeometry y="36" width="957" height="30" as="geometry" />
        </mxCell>
        <mxCell id="TJQ8qajKtdntS8sscnsx-61" value="&lt;font style=&quot;font-size: 16px;&quot;&gt;Quiz_01&lt;/font&gt;" style="shape=partialRectangle;html=1;whiteSpace=wrap;connectable=0;strokeColor=inherit;overflow=hidden;fillColor=#E3E8EB;top=1;left=1;bottom=1;right=1;pointerEvents=1;fontSize=16;" parent="TJQ8qajKtdntS8sscnsx-60" vertex="1">
          <mxGeometry width="92" height="30" as="geometry">
            <mxRectangle width="92" height="30" as="alternateBounds" />
          </mxGeometry>
        </mxCell>
        <mxCell id="TJQ8qajKtdntS8sscnsx-62" value="&lt;font style=&quot;font-size: 16px;&quot;&gt;Quiz_02&lt;/font&gt;" style="shape=partialRectangle;html=1;whiteSpace=wrap;connectable=0;strokeColor=inherit;overflow=hidden;fillColor=#E3E8EB;top=1;left=1;bottom=1;right=1;pointerEvents=1;fontSize=16;" parent="TJQ8qajKtdntS8sscnsx-60" vertex="1">
          <mxGeometry x="92" width="91" height="30" as="geometry">
            <mxRectangle width="91" height="30" as="alternateBounds" />
          </mxGeometry>
        </mxCell>
        <mxCell id="TJQ8qajKtdntS8sscnsx-63" value="&lt;font style=&quot;font-size: 16px;&quot;&gt;Quiz_03&lt;/font&gt;" style="shape=partialRectangle;html=1;whiteSpace=wrap;connectable=0;strokeColor=inherit;overflow=hidden;fillColor=#E3E8EB;top=1;left=1;bottom=1;right=1;pointerEvents=1;fontSize=16;" parent="TJQ8qajKtdntS8sscnsx-60" vertex="1">
          <mxGeometry x="183" width="92" height="30" as="geometry">
            <mxRectangle width="92" height="30" as="alternateBounds" />
          </mxGeometry>
        </mxCell>
        <mxCell id="TJQ8qajKtdntS8sscnsx-64" value="&lt;font style=&quot;font-size: 16px;&quot;&gt;Assesment&lt;/font&gt;" style="shape=partialRectangle;html=1;whiteSpace=wrap;connectable=0;strokeColor=inherit;overflow=hidden;fillColor=#E3E8EB;top=1;left=1;bottom=1;right=1;pointerEvents=1;fontSize=16;" parent="TJQ8qajKtdntS8sscnsx-60" vertex="1">
          <mxGeometry x="275" width="92" height="30" as="geometry">
            <mxRectangle width="92" height="30" as="alternateBounds" />
          </mxGeometry>
        </mxCell>
        <mxCell id="TJQ8qajKtdntS8sscnsx-65" value="&lt;font style=&quot;font-size: 16px;&quot;&gt;Mid_Theory&lt;/font&gt;" style="shape=partialRectangle;html=1;whiteSpace=wrap;connectable=0;strokeColor=inherit;overflow=hidden;fillColor=#E3E8EB;top=1;left=1;bottom=1;right=1;pointerEvents=1;fontSize=16;" parent="TJQ8qajKtdntS8sscnsx-60" vertex="1">
          <mxGeometry x="367" width="91" height="30" as="geometry">
            <mxRectangle width="91" height="30" as="alternateBounds" />
          </mxGeometry>
        </mxCell>
        <mxCell id="TJQ8qajKtdntS8sscnsx-66" value="&lt;font style=&quot;font-size: 16px;&quot;&gt;Mid_Practical&lt;/font&gt;" style="shape=partialRectangle;html=1;whiteSpace=wrap;connectable=0;strokeColor=inherit;overflow=hidden;fillColor=#E3E8EB;top=1;left=1;bottom=1;right=1;pointerEvents=1;fontSize=16;" parent="TJQ8qajKtdntS8sscnsx-60" vertex="1">
          <mxGeometry x="458" width="112" height="30" as="geometry">
            <mxRectangle width="112" height="30" as="alternateBounds" />
          </mxGeometry>
        </mxCell>
        <mxCell id="TJQ8qajKtdntS8sscnsx-67" value="&lt;font style=&quot;font-size: 16px;&quot;&gt;End_Theory&lt;/font&gt;" style="shape=partialRectangle;html=1;whiteSpace=wrap;connectable=0;strokeColor=inherit;overflow=hidden;fillColor=#E3E8EB;top=1;left=1;bottom=1;right=1;pointerEvents=1;fontSize=16;" parent="TJQ8qajKtdntS8sscnsx-60" vertex="1">
          <mxGeometry x="570" width="102" height="30" as="geometry">
            <mxRectangle width="102" height="30" as="alternateBounds" />
          </mxGeometry>
        </mxCell>
        <mxCell id="TJQ8qajKtdntS8sscnsx-68" value="&lt;font style=&quot;font-size: 16px;&quot;&gt;End_Practical&lt;/font&gt;" style="shape=partialRectangle;html=1;whiteSpace=wrap;connectable=0;strokeColor=inherit;overflow=hidden;fillColor=#E3E8EB;top=1;left=1;bottom=1;right=1;pointerEvents=1;fontSize=16;" parent="TJQ8qajKtdntS8sscnsx-60" vertex="1">
          <mxGeometry x="672" width="112" height="30" as="geometry">
            <mxRectangle width="112" height="30" as="alternateBounds" />
          </mxGeometry>
        </mxCell>
        <mxCell id="TJQ8qajKtdntS8sscnsx-69" value="&lt;span style=&quot;font-size: 16px;&quot;&gt;Stu_Id&lt;/span&gt;" style="shape=partialRectangle;html=1;whiteSpace=wrap;connectable=0;strokeColor=inherit;overflow=hidden;fillColor=#E3E8EB;top=1;left=1;bottom=1;right=1;pointerEvents=1;fontSize=16;" parent="TJQ8qajKtdntS8sscnsx-60" vertex="1">
          <mxGeometry x="784" width="99" height="30" as="geometry">
            <mxRectangle width="99" height="30" as="alternateBounds" />
          </mxGeometry>
        </mxCell>
        <mxCell id="TJQ8qajKtdntS8sscnsx-70" value="&lt;font style=&quot;font-size: 16px;&quot;&gt;CourseID&lt;/font&gt;" style="shape=partialRectangle;html=1;whiteSpace=wrap;connectable=0;strokeColor=inherit;overflow=hidden;fillColor=#E3E8EB;top=1;left=1;bottom=1;right=1;pointerEvents=1;fontSize=16;" parent="TJQ8qajKtdntS8sscnsx-60" vertex="1">
          <mxGeometry x="883" width="74" height="30" as="geometry">
            <mxRectangle width="74" height="30" as="alternateBounds" />
          </mxGeometry>
        </mxCell>
        <mxCell id="TJQ8qajKtdntS8sscnsx-71" value="LECTURER_STUDENTS" style="shape=table;startSize=30;container=1;collapsible=0;childLayout=tableLayout;fontStyle=1;fillColor=none;fontSize=16;swimlaneHead=0;align=left;" parent="1" vertex="1">
          <mxGeometry x="259" y="120" width="194" height="70" as="geometry" />
        </mxCell>
        <mxCell id="TJQ8qajKtdntS8sscnsx-72" value="" style="shape=tableRow;horizontal=0;startSize=0;swimlaneHead=0;swimlaneBody=0;strokeColor=inherit;top=0;left=0;bottom=0;right=0;collapsible=0;dropTarget=0;fillColor=none;points=[[0,0.5],[1,0.5]];portConstraint=eastwest;fontSize=16;" parent="TJQ8qajKtdntS8sscnsx-71" vertex="1">
          <mxGeometry y="30" width="194" height="40" as="geometry" />
        </mxCell>
        <mxCell id="TJQ8qajKtdntS8sscnsx-73" value="&lt;u style=&quot;font-size: 16px;&quot;&gt;LEC_ID&amp;nbsp;&lt;/u&gt;" style="shape=partialRectangle;html=1;whiteSpace=wrap;connectable=0;strokeColor=inherit;overflow=hidden;fillColor=#E3E8EB;top=1;left=1;bottom=1;right=1;pointerEvents=1;fontSize=16;" parent="TJQ8qajKtdntS8sscnsx-72" vertex="1">
          <mxGeometry width="98" height="40" as="geometry">
            <mxRectangle width="98" height="40" as="alternateBounds" />
          </mxGeometry>
        </mxCell>
        <mxCell id="TJQ8qajKtdntS8sscnsx-74" value="&lt;font style=&quot;font-size: 16px;&quot;&gt;Stu_ID&lt;/font&gt;" style="shape=partialRectangle;html=1;whiteSpace=wrap;connectable=0;strokeColor=inherit;overflow=hidden;fillColor=#E3E8EB;top=1;left=1;bottom=1;right=1;pointerEvents=1;fontSize=16;" parent="TJQ8qajKtdntS8sscnsx-72" vertex="1">
          <mxGeometry x="98" width="96" height="40" as="geometry">
            <mxRectangle width="96" height="40" as="alternateBounds" />
          </mxGeometry>
        </mxCell>
        <mxCell id="TJQ8qajKtdntS8sscnsx-83" value="LECTURER_COURSE" style="shape=table;startSize=30;container=1;collapsible=0;childLayout=tableLayout;fontStyle=1;fillColor=none;fontSize=16;swimlaneHead=0;align=left;" parent="1" vertex="1">
          <mxGeometry x="259" y="510" width="410" height="60" as="geometry" />
        </mxCell>
        <mxCell id="TJQ8qajKtdntS8sscnsx-84" value="" style="shape=tableRow;horizontal=0;startSize=0;swimlaneHead=0;swimlaneBody=0;strokeColor=inherit;top=0;left=0;bottom=0;right=0;collapsible=0;dropTarget=0;fillColor=none;points=[[0,0.5],[1,0.5]];portConstraint=eastwest;fontSize=16;" parent="TJQ8qajKtdntS8sscnsx-83" vertex="1">
          <mxGeometry y="30" width="410" height="30" as="geometry" />
        </mxCell>
        <mxCell id="TJQ8qajKtdntS8sscnsx-85" value="&lt;u style=&quot;font-size: 16px;&quot;&gt;LEC_ID&lt;/u&gt;" style="shape=partialRectangle;html=1;whiteSpace=wrap;connectable=0;strokeColor=inherit;overflow=hidden;fillColor=#E3E8EB;top=1;left=1;bottom=1;right=1;pointerEvents=1;fontSize=16;" parent="TJQ8qajKtdntS8sscnsx-84" vertex="1">
          <mxGeometry width="103" height="30" as="geometry">
            <mxRectangle width="103" height="30" as="alternateBounds" />
          </mxGeometry>
        </mxCell>
        <mxCell id="TJQ8qajKtdntS8sscnsx-86" value="&lt;u style=&quot;border-color: var(--border-color); font-size: 16px;&quot;&gt;CourseID&lt;/u&gt;" style="shape=partialRectangle;html=1;whiteSpace=wrap;connectable=0;strokeColor=inherit;overflow=hidden;fillColor=#E3E8EB;top=1;left=1;bottom=1;right=1;pointerEvents=1;fontSize=16;" parent="TJQ8qajKtdntS8sscnsx-84" vertex="1">
          <mxGeometry x="103" width="102" height="30" as="geometry">
            <mxRectangle width="102" height="30" as="alternateBounds" />
          </mxGeometry>
        </mxCell>
        <mxCell id="TJQ8qajKtdntS8sscnsx-87" value="Lec_in_charge" style="shape=partialRectangle;html=1;whiteSpace=wrap;connectable=0;strokeColor=inherit;overflow=hidden;fillColor=#E3E8EB;top=1;left=1;bottom=1;right=1;pointerEvents=1;fontSize=16;" parent="TJQ8qajKtdntS8sscnsx-84" vertex="1">
          <mxGeometry x="205" width="126" height="30" as="geometry">
            <mxRectangle width="126" height="30" as="alternateBounds" />
          </mxGeometry>
        </mxCell>
        <mxCell id="TJQ8qajKtdntS8sscnsx-88" value="Lec_hours" style="shape=partialRectangle;html=1;whiteSpace=wrap;connectable=0;strokeColor=inherit;overflow=hidden;fillColor=#E3E8EB;top=1;left=1;bottom=1;right=1;pointerEvents=1;fontSize=16;" parent="TJQ8qajKtdntS8sscnsx-84" vertex="1">
          <mxGeometry x="331" width="79" height="30" as="geometry">
            <mxRectangle width="79" height="30" as="alternateBounds" />
          </mxGeometry>
        </mxCell>
        <mxCell id="TJQ8qajKtdntS8sscnsx-89" value="STUDENT_Course" style="shape=table;startSize=30;container=1;collapsible=0;childLayout=tableLayout;fontStyle=1;fillColor=none;fontSize=16;swimlaneHead=0;align=left;" parent="1" vertex="1">
          <mxGeometry x="259" y="640" width="216" height="70" as="geometry" />
        </mxCell>
        <mxCell id="TJQ8qajKtdntS8sscnsx-90" value="" style="shape=tableRow;horizontal=0;startSize=0;swimlaneHead=0;swimlaneBody=0;strokeColor=inherit;top=0;left=0;bottom=0;right=0;collapsible=0;dropTarget=0;fillColor=none;points=[[0,0.5],[1,0.5]];portConstraint=eastwest;fontSize=16;" parent="TJQ8qajKtdntS8sscnsx-89" vertex="1">
          <mxGeometry y="30" width="216" height="40" as="geometry" />
        </mxCell>
        <mxCell id="TJQ8qajKtdntS8sscnsx-91" value="&lt;u style=&quot;font-size: 16px;&quot;&gt;Stu_ID&amp;nbsp;&lt;/u&gt;" style="shape=partialRectangle;html=1;whiteSpace=wrap;connectable=0;strokeColor=inherit;overflow=hidden;fillColor=#E3E8EB;top=1;left=1;bottom=1;right=1;pointerEvents=1;fontSize=16;" parent="TJQ8qajKtdntS8sscnsx-90" vertex="1">
          <mxGeometry width="109" height="40" as="geometry">
            <mxRectangle width="109" height="40" as="alternateBounds" />
          </mxGeometry>
        </mxCell>
        <mxCell id="TJQ8qajKtdntS8sscnsx-92" value="&lt;font style=&quot;font-size: 16px;&quot;&gt;&lt;u style=&quot;font-size: 16px;&quot;&gt;COURSE_ID&lt;/u&gt;&amp;nbsp;&lt;/font&gt;" style="shape=partialRectangle;html=1;whiteSpace=wrap;connectable=0;strokeColor=inherit;overflow=hidden;fillColor=#E3E8EB;top=1;left=1;bottom=1;right=1;pointerEvents=1;fontSize=16;" parent="TJQ8qajKtdntS8sscnsx-90" vertex="1">
          <mxGeometry x="109" width="107" height="40" as="geometry">
            <mxRectangle width="107" height="40" as="alternateBounds" />
          </mxGeometry>
        </mxCell>
        <mxCell id="TJQ8qajKtdntS8sscnsx-93" value="TO_Attendence" style="shape=table;startSize=30;container=1;collapsible=0;childLayout=tableLayout;fontStyle=1;fillColor=none;fontSize=16;swimlaneHead=0;align=left;" parent="1" vertex="1">
          <mxGeometry x="259" y="800" width="316" height="70" as="geometry" />
        </mxCell>
        <mxCell id="TJQ8qajKtdntS8sscnsx-94" value="" style="shape=tableRow;horizontal=0;startSize=0;swimlaneHead=0;swimlaneBody=0;strokeColor=inherit;top=0;left=0;bottom=0;right=0;collapsible=0;dropTarget=0;fillColor=none;points=[[0,0.5],[1,0.5]];portConstraint=eastwest;fontSize=16;" parent="TJQ8qajKtdntS8sscnsx-93" vertex="1">
          <mxGeometry y="30" width="316" height="40" as="geometry" />
        </mxCell>
        <mxCell id="TJQ8qajKtdntS8sscnsx-95" value="&lt;u style=&quot;font-size: 16px;&quot;&gt;&lt;font style=&quot;font-size: 16px;&quot;&gt;TO_Id&lt;/font&gt;&lt;/u&gt;" style="shape=partialRectangle;html=1;whiteSpace=wrap;connectable=0;strokeColor=inherit;overflow=hidden;fillColor=#E3E8EB;top=1;left=1;bottom=1;right=1;pointerEvents=1;fontSize=16;" parent="TJQ8qajKtdntS8sscnsx-94" vertex="1">
          <mxGeometry width="104" height="40" as="geometry">
            <mxRectangle width="104" height="40" as="alternateBounds" />
          </mxGeometry>
        </mxCell>
        <mxCell id="TJQ8qajKtdntS8sscnsx-96" value="&lt;font style=&quot;font-size: 16px;&quot;&gt;&lt;u style=&quot;font-size: 16px;&quot;&gt;COURSE_ID&lt;/u&gt;&lt;/font&gt;" style="shape=partialRectangle;html=1;whiteSpace=wrap;connectable=0;strokeColor=inherit;overflow=hidden;fillColor=#E3E8EB;top=1;left=1;bottom=1;right=1;pointerEvents=1;fontSize=16;" parent="TJQ8qajKtdntS8sscnsx-94" vertex="1">
          <mxGeometry x="104" width="106" height="40" as="geometry">
            <mxRectangle width="106" height="40" as="alternateBounds" />
          </mxGeometry>
        </mxCell>
        <mxCell id="TJQ8qajKtdntS8sscnsx-97" value="&lt;u style=&quot;font-size: 16px;&quot;&gt;Stu_ID&amp;nbsp;&lt;/u&gt;" style="shape=partialRectangle;html=1;whiteSpace=wrap;connectable=0;strokeColor=inherit;overflow=hidden;fillColor=#E3E8EB;top=1;left=1;bottom=1;right=1;pointerEvents=1;fontSize=16;" parent="TJQ8qajKtdntS8sscnsx-94" vertex="1">
          <mxGeometry x="210" width="106" height="40" as="geometry">
            <mxRectangle width="106" height="40" as="alternateBounds" />
          </mxGeometry>
        </mxCell>
        <mxCell id="TJQ8qajKtdntS8sscnsx-103" value="STUDENT_ELIGIBILITY" style="shape=table;startSize=30;container=1;collapsible=0;childLayout=tableLayout;fontStyle=1;fillColor=none;fontSize=16;swimlaneHead=0;align=left;" parent="1" vertex="1">
          <mxGeometry x="259" y="940" width="213" height="70" as="geometry" />
        </mxCell>
        <mxCell id="TJQ8qajKtdntS8sscnsx-104" value="" style="shape=tableRow;horizontal=0;startSize=0;swimlaneHead=0;swimlaneBody=0;strokeColor=inherit;top=0;left=0;bottom=0;right=0;collapsible=0;dropTarget=0;fillColor=none;points=[[0,0.5],[1,0.5]];portConstraint=eastwest;fontSize=16;" parent="TJQ8qajKtdntS8sscnsx-103" vertex="1">
          <mxGeometry y="30" width="213" height="40" as="geometry" />
        </mxCell>
        <mxCell id="TJQ8qajKtdntS8sscnsx-105" value="&lt;font style=&quot;font-size: 16px;&quot;&gt;&lt;u style=&quot;font-size: 16px;&quot;&gt;EliID&lt;/u&gt;&lt;/font&gt;" style="shape=partialRectangle;html=1;whiteSpace=wrap;connectable=0;strokeColor=inherit;overflow=hidden;fillColor=#E3E8EB;top=1;left=1;bottom=1;right=1;pointerEvents=1;fontSize=16;" parent="TJQ8qajKtdntS8sscnsx-104" vertex="1">
          <mxGeometry width="107" height="40" as="geometry">
            <mxRectangle width="107" height="40" as="alternateBounds" />
          </mxGeometry>
        </mxCell>
        <mxCell id="TJQ8qajKtdntS8sscnsx-106" value="&lt;font style=&quot;font-size: 16px;&quot;&gt;&lt;u style=&quot;font-size: 16px;&quot;&gt;Stu_Id&lt;/u&gt;&lt;/font&gt;" style="shape=partialRectangle;html=1;whiteSpace=wrap;connectable=0;strokeColor=inherit;overflow=hidden;fillColor=#E3E8EB;top=1;left=1;bottom=1;right=1;pointerEvents=1;fontSize=16;" parent="TJQ8qajKtdntS8sscnsx-104" vertex="1">
          <mxGeometry x="107" width="106" height="40" as="geometry">
            <mxRectangle width="106" height="40" as="alternateBounds" />
          </mxGeometry>
        </mxCell>
        <mxCell id="TJQ8qajKtdntS8sscnsx-179" value="" style="endArrow=classic;html=1;rounded=0;" parent="1" edge="1">
          <mxGeometry width="50" height="50" relative="1" as="geometry">
            <mxPoint x="-837" y="290" as="sourcePoint" />
            <mxPoint x="-837" y="160" as="targetPoint" />
          </mxGeometry>
        </mxCell>
        <mxCell id="TJQ8qajKtdntS8sscnsx-181" value="" style="endArrow=classic;html=1;rounded=0;exitX=0;exitY=0.5;exitDx=0;exitDy=0;" parent="1" source="TJQ8qajKtdntS8sscnsx-17" edge="1">
          <mxGeometry width="50" height="50" relative="1" as="geometry">
            <mxPoint x="-920" y="462.03999999999996" as="sourcePoint" />
            <mxPoint x="-851" y="160" as="targetPoint" />
            <Array as="points">
              <mxPoint x="-941" y="480" />
              <mxPoint x="-941" y="220" />
              <mxPoint x="-851" y="220" />
            </Array>
          </mxGeometry>
        </mxCell>
        <mxCell id="TJQ8qajKtdntS8sscnsx-182" value="" style="endArrow=classic;html=1;rounded=0;exitX=0;exitY=0.75;exitDx=0;exitDy=0;exitPerimeter=0;" parent="1" edge="1">
          <mxGeometry width="50" height="50" relative="1" as="geometry">
            <mxPoint x="-920.9999999999998" y="610" as="sourcePoint" />
            <mxPoint x="-871" y="160" as="targetPoint" />
            <Array as="points">
              <mxPoint x="-961" y="610" />
              <mxPoint x="-961" y="200" />
              <mxPoint x="-871" y="200" />
            </Array>
          </mxGeometry>
        </mxCell>
        <mxCell id="TJQ8qajKtdntS8sscnsx-183" value="" style="endArrow=classic;html=1;rounded=0;entryX=0.036;entryY=0.867;entryDx=0;entryDy=0;entryPerimeter=0;" parent="1" edge="1">
          <mxGeometry width="50" height="50" relative="1" as="geometry">
            <mxPoint x="-921" y="760" as="sourcePoint" />
            <mxPoint x="-890.4000000000001" y="159.0100000000001" as="targetPoint" />
            <Array as="points">
              <mxPoint x="-1001" y="760" />
              <mxPoint x="-1001" y="620" />
              <mxPoint x="-1001" y="463" />
              <mxPoint x="-1001" y="240" />
              <mxPoint x="-1001" y="183" />
              <mxPoint x="-971" y="183" />
              <mxPoint x="-941" y="183" />
              <mxPoint x="-890" y="183" />
            </Array>
          </mxGeometry>
        </mxCell>
        <mxCell id="TJQ8qajKtdntS8sscnsx-185" value="" style="endArrow=classic;html=1;rounded=0;entryX=0;entryY=0.618;entryDx=0;entryDy=0;entryPerimeter=0;" parent="1" target="TJQ8qajKtdntS8sscnsx-2" edge="1">
          <mxGeometry width="50" height="50" relative="1" as="geometry">
            <mxPoint x="-921" y="900" as="sourcePoint" />
            <mxPoint x="-981" y="900" as="targetPoint" />
            <Array as="points">
              <mxPoint x="-1041" y="900" />
              <mxPoint x="-1041" y="720" />
              <mxPoint x="-1041" y="500" />
              <mxPoint x="-1041" y="280" />
              <mxPoint x="-1041" y="148" />
            </Array>
          </mxGeometry>
        </mxCell>
        <mxCell id="TJQ8qajKtdntS8sscnsx-186" value="" style="endArrow=classic;html=1;rounded=0;exitX=0.863;exitY=1.051;exitDx=0;exitDy=0;exitPerimeter=0;jumpStyle=arc;" parent="1" edge="1">
          <mxGeometry width="50" height="50" relative="1" as="geometry">
            <mxPoint x="-481.8699999999999" y="1102.989" as="sourcePoint" />
            <mxPoint x="-882" y="330" as="targetPoint" />
            <Array as="points">
              <mxPoint x="-482" y="1120" />
              <mxPoint x="-163" y="1120" />
              <mxPoint x="-162" y="997" />
              <mxPoint x="-162" y="747" />
              <mxPoint x="-162" y="377" />
              <mxPoint x="-882" y="377" />
            </Array>
          </mxGeometry>
        </mxCell>
        <mxCell id="TJQ8qajKtdntS8sscnsx-187" value="" style="edgeStyle=segmentEdgeStyle;endArrow=classic;html=1;curved=0;rounded=0;endSize=8;startSize=8;exitX=0.16;exitY=0.951;exitDx=0;exitDy=0;exitPerimeter=0;jumpStyle=arc;" parent="1" source="TJQ8qajKtdntS8sscnsx-94" edge="1">
          <mxGeometry width="50" height="50" relative="1" as="geometry">
            <mxPoint x="147" y="960" as="sourcePoint" />
            <mxPoint x="-823" y="920" as="targetPoint" />
            <Array as="points">
              <mxPoint x="308" y="868" />
              <mxPoint x="308" y="920" />
              <mxPoint x="207" y="920" />
              <mxPoint x="207" y="950" />
              <mxPoint x="-823" y="950" />
            </Array>
          </mxGeometry>
        </mxCell>
        <mxCell id="TJQ8qajKtdntS8sscnsx-190" value="" style="endArrow=none;html=1;rounded=0;jumpStyle=arc;endFill=0;startArrow=classic;startFill=1;entryX=0.545;entryY=0.937;entryDx=0;entryDy=0;entryPerimeter=0;" parent="1" target="TJQ8qajKtdntS8sscnsx-34" edge="1">
          <mxGeometry width="50" height="50" relative="1" as="geometry">
            <mxPoint x="-862" y="780" as="sourcePoint" />
            <mxPoint x="-643" y="1110" as="targetPoint" />
            <Array as="points">
              <mxPoint x="-862" y="800" />
              <mxPoint x="-542" y="800" />
              <mxPoint x="-222" y="800" />
              <mxPoint x="-223" y="1130" />
              <mxPoint x="-643" y="1130" />
            </Array>
          </mxGeometry>
        </mxCell>
        <mxCell id="TJQ8qajKtdntS8sscnsx-191" value="" style="endArrow=classic;html=1;rounded=0;jumpStyle=arc;entryX=0.996;entryY=0.218;entryDx=0;entryDy=0;entryPerimeter=0;" parent="1" target="TJQ8qajKtdntS8sscnsx-27" edge="1">
          <mxGeometry width="50" height="50" relative="1" as="geometry">
            <mxPoint x="-233" y="1490" as="sourcePoint" />
            <mxPoint x="-776" y="750" as="targetPoint" />
            <Array as="points">
              <mxPoint x="-233" y="1550" />
              <mxPoint x="-73" y="1550" />
              <mxPoint x="-73" y="1150" />
              <mxPoint x="-73" y="750" />
            </Array>
          </mxGeometry>
        </mxCell>
        <mxCell id="TJQ8qajKtdntS8sscnsx-193" value="" style="endArrow=classic;startArrow=none;html=1;rounded=0;endFill=1;entryX=0.252;entryY=0.987;entryDx=0;entryDy=0;entryPerimeter=0;jumpStyle=arc;verticalAlign=middle;startFill=0;strokeColor=default;" parent="1" target="TJQ8qajKtdntS8sscnsx-23" edge="1">
          <mxGeometry width="50" height="50" relative="1" as="geometry">
            <mxPoint x="313" y="570" as="sourcePoint" />
            <mxPoint x="-872" y="650" as="targetPoint" />
            <Array as="points">
              <mxPoint x="313" y="620" />
              <mxPoint x="217" y="620" />
              <mxPoint x="217" y="660" />
              <mxPoint x="47" y="660" />
              <mxPoint x="-233" y="660" />
              <mxPoint x="-513" y="662" />
              <mxPoint x="-792" y="662" />
              <mxPoint x="-872" y="662" />
            </Array>
          </mxGeometry>
        </mxCell>
        <mxCell id="TVRoV4i9c3XbtMwJqWjD-3" value="" style="endArrow=classic;html=1;rounded=0;entryX=0.165;entryY=0.897;entryDx=0;entryDy=0;entryPerimeter=0;jumpStyle=arc;" parent="1" edge="1">
          <mxGeometry width="50" height="50" relative="1" as="geometry">
            <mxPoint x="-563" y="500" as="sourcePoint" />
            <mxPoint x="-836.8499999999999" y="1104.983" as="targetPoint" />
            <Array as="points">
              <mxPoint x="-563" y="535" />
              <mxPoint x="-303" y="535" />
              <mxPoint x="-303" y="1150" />
              <mxPoint x="-837" y="1150" />
            </Array>
          </mxGeometry>
        </mxCell>
        <mxCell id="TVRoV4i9c3XbtMwJqWjD-6" value="" style="endArrow=none;html=1;rounded=0;jumpStyle=arc;startArrow=classic;startFill=1;endFill=0;" parent="1" edge="1">
          <mxGeometry width="50" height="50" relative="1" as="geometry">
            <mxPoint x="-803" y="500" as="sourcePoint" />
            <mxPoint x="337" y="710" as="targetPoint" />
            <Array as="points">
              <mxPoint x="-803" y="550" />
              <mxPoint x="-573" y="550" />
              <mxPoint x="-203" y="550" />
              <mxPoint x="117" y="550" />
              <mxPoint x="117" y="600" />
              <mxPoint x="117" y="730" />
              <mxPoint x="337" y="730" />
            </Array>
          </mxGeometry>
        </mxCell>
        <mxCell id="pRjLdqucPD1GhFJBlhZP-17" value="" style="endArrow=classic;html=1;rounded=0;entryX=0.117;entryY=1.142;entryDx=0;entryDy=0;entryPerimeter=0;jumpStyle=arc;" parent="1" target="TJQ8qajKtdntS8sscnsx-40" edge="1">
          <mxGeometry width="50" height="50" relative="1" as="geometry">
            <mxPoint x="400" y="710" as="sourcePoint" />
            <mxPoint x="-830" y="1300" as="targetPoint" />
            <Array as="points">
              <mxPoint x="400" y="730" />
              <mxPoint x="400" y="750" />
              <mxPoint x="357" y="750" />
              <mxPoint x="297" y="750" />
              <mxPoint x="197" y="750" />
              <mxPoint x="197" y="800" />
              <mxPoint x="197" y="1010" />
              <mxPoint x="197" y="1320" />
              <mxPoint x="127" y="1320" />
              <mxPoint x="-43" y="1320" />
              <mxPoint x="-503" y="1320" />
              <mxPoint x="-873" y="1320" />
            </Array>
          </mxGeometry>
        </mxCell>
        <mxCell id="pRjLdqucPD1GhFJBlhZP-18" value="" style="endArrow=classic;html=1;rounded=0;exitX=0.867;exitY=1.026;exitDx=0;exitDy=0;exitPerimeter=0;jumpStyle=arc;" parent="1" source="TJQ8qajKtdntS8sscnsx-54" edge="1">
          <mxGeometry width="50" height="50" relative="1" as="geometry">
            <mxPoint x="-866" y="550" as="sourcePoint" />
            <mxPoint x="-839" y="500" as="targetPoint" />
            <Array as="points">
              <mxPoint x="-546" y="1740" />
              <mxPoint x="-653" y="1740" />
              <mxPoint x="-823" y="1740" />
              <mxPoint x="-1080" y="1740" />
              <mxPoint x="-1080" y="1460" />
              <mxPoint x="-1080" y="1140" />
              <mxPoint x="-1080" y="520" />
              <mxPoint x="-1053" y="520" />
              <mxPoint x="-1013" y="520" />
              <mxPoint x="-913" y="520" />
              <mxPoint x="-839" y="520" />
            </Array>
          </mxGeometry>
        </mxCell>
        <mxCell id="pRjLdqucPD1GhFJBlhZP-19" value="ELIGIBILITY" style="shape=table;startSize=30;container=1;collapsible=0;childLayout=tableLayout;fontStyle=1;fillColor=none;fontSize=16;align=left;swimlaneHead=0;" parent="1" vertex="1">
          <mxGeometry x="-920" y="1960" width="320" height="69.99999999999977" as="geometry" />
        </mxCell>
        <mxCell id="pRjLdqucPD1GhFJBlhZP-20" value="" style="shape=tableRow;horizontal=0;startSize=0;swimlaneHead=0;swimlaneBody=0;strokeColor=inherit;top=0;left=0;bottom=0;right=0;collapsible=0;dropTarget=0;fillColor=none;points=[[0,0.5],[1,0.5]];portConstraint=eastwest;fontSize=16;" parent="pRjLdqucPD1GhFJBlhZP-19" vertex="1">
          <mxGeometry y="30" width="320" height="40" as="geometry" />
        </mxCell>
        <mxCell id="pRjLdqucPD1GhFJBlhZP-21" value="&lt;font style=&quot;font-size: 16px;&quot;&gt;&lt;u style=&quot;font-size: 16px;&quot;&gt;Eli_ID&lt;/u&gt;&lt;/font&gt;" style="shape=partialRectangle;html=1;whiteSpace=wrap;connectable=0;strokeColor=inherit;overflow=hidden;fillColor=#E3E8EB;top=1;left=1;bottom=1;right=1;pointerEvents=1;fontSize=16;" parent="pRjLdqucPD1GhFJBlhZP-20" vertex="1">
          <mxGeometry width="107" height="40" as="geometry">
            <mxRectangle width="107" height="40" as="alternateBounds" />
          </mxGeometry>
        </mxCell>
        <mxCell id="pRjLdqucPD1GhFJBlhZP-22" value="&lt;font style=&quot;font-size: 16px;&quot;&gt;&lt;u style=&quot;font-size: 16px;&quot;&gt;Stu_Id&lt;/u&gt;&lt;/font&gt;" style="shape=partialRectangle;html=1;whiteSpace=wrap;connectable=0;strokeColor=inherit;overflow=hidden;fillColor=#E3E8EB;top=1;left=1;bottom=1;right=1;pointerEvents=1;fontSize=16;" parent="pRjLdqucPD1GhFJBlhZP-20" vertex="1">
          <mxGeometry x="107" width="106" height="40" as="geometry">
            <mxRectangle width="106" height="40" as="alternateBounds" />
          </mxGeometry>
        </mxCell>
        <mxCell id="pRjLdqucPD1GhFJBlhZP-23" value="&lt;span style=&quot;font-size: 16px;&quot;&gt;Status&lt;/span&gt;" style="shape=partialRectangle;html=1;whiteSpace=wrap;connectable=0;strokeColor=inherit;overflow=hidden;fillColor=#E3E8EB;top=1;left=1;bottom=1;right=1;pointerEvents=1;fontSize=16;" parent="pRjLdqucPD1GhFJBlhZP-20" vertex="1">
          <mxGeometry x="213" width="107" height="40" as="geometry">
            <mxRectangle width="107" height="40" as="alternateBounds" />
          </mxGeometry>
        </mxCell>
        <mxCell id="pRjLdqucPD1GhFJBlhZP-24" value="" style="endArrow=classic;html=1;rounded=0;jumpStyle=arc;" parent="1" edge="1">
          <mxGeometry width="50" height="50" relative="1" as="geometry">
            <mxPoint x="-760" y="2030" as="sourcePoint" />
            <mxPoint x="-870" y="500" as="targetPoint" />
            <Array as="points">
              <mxPoint x="-760" y="2080" />
              <mxPoint x="-1120" y="2080" />
              <mxPoint x="-1120" y="1650" />
              <mxPoint x="-1120" y="1260" />
              <mxPoint x="-1120" y="1080" />
              <mxPoint x="-1120" y="900" />
              <mxPoint x="-1120" y="540" />
              <mxPoint x="-870" y="540" />
            </Array>
          </mxGeometry>
        </mxCell>
        <mxCell id="pRjLdqucPD1GhFJBlhZP-29" value="" style="endArrow=classic;html=1;rounded=0;exitX=0.342;exitY=1.167;exitDx=0;exitDy=0;exitPerimeter=0;entryX=0.048;entryY=1.032;entryDx=0;entryDy=0;entryPerimeter=0;jumpStyle=arc;" parent="1" source="TJQ8qajKtdntS8sscnsx-84" target="TJQ8qajKtdntS8sscnsx-40" edge="1">
          <mxGeometry width="50" height="50" relative="1" as="geometry">
            <mxPoint x="80" y="790" as="sourcePoint" />
            <mxPoint x="-900" y="1290" as="targetPoint" />
            <Array as="points">
              <mxPoint x="399" y="600" />
              <mxPoint x="270" y="600" />
              <mxPoint x="100" y="600" />
              <mxPoint x="100" y="970" />
              <mxPoint x="100" y="1070" />
              <mxPoint x="100" y="1110" />
              <mxPoint x="100" y="1230" />
              <mxPoint x="100" y="1292" />
              <mxPoint x="100" y="1320" />
              <mxPoint x="100" y="1350" />
              <mxPoint x="-660" y="1350" />
              <mxPoint x="-902" y="1350" />
            </Array>
          </mxGeometry>
        </mxCell>
        <mxCell id="pRjLdqucPD1GhFJBlhZP-30" value="" style="endArrow=classic;html=1;rounded=0;exitX=0.297;exitY=1.003;exitDx=0;exitDy=0;exitPerimeter=0;" parent="1" edge="1">
          <mxGeometry width="50" height="50" relative="1" as="geometry">
            <mxPoint x="308.61799999999994" y="190.1199999999999" as="sourcePoint" />
            <mxPoint x="-908" y="640" as="targetPoint" />
            <Array as="points">
              <mxPoint x="309" y="240" />
              <mxPoint x="200" y="240" />
              <mxPoint x="200" y="700" />
              <mxPoint x="-260" y="700" />
              <mxPoint x="-908" y="700" />
            </Array>
          </mxGeometry>
        </mxCell>
        <mxCell id="XVqcR1sWWXOx4bEpBNZz-1" value="" style="endArrow=classic;html=1;rounded=0;entryX=0.25;entryY=1.092;entryDx=0;entryDy=0;entryPerimeter=0;jumpStyle=arc;" edge="1" parent="1" target="TJQ8qajKtdntS8sscnsx-17">
          <mxGeometry width="50" height="50" relative="1" as="geometry">
            <mxPoint x="-90" y="1890" as="sourcePoint" />
            <mxPoint x="-50" y="1970" as="targetPoint" />
            <Array as="points">
              <mxPoint x="-90" y="1930" />
              <mxPoint x="-30" y="1930" />
              <mxPoint x="40" y="1930" />
              <mxPoint x="70" y="1930" />
              <mxPoint x="70" y="1850" />
              <mxPoint x="70" y="1630" />
              <mxPoint x="70" y="1240" />
              <mxPoint x="70" y="570" />
              <mxPoint x="-819" y="570" />
            </Array>
          </mxGeometry>
        </mxCell>
        <mxCell id="XVqcR1sWWXOx4bEpBNZz-2" value="" style="endArrow=classic;html=1;rounded=0;entryX=0.172;entryY=0.975;entryDx=0;entryDy=0;entryPerimeter=0;exitX=0.958;exitY=0.989;exitDx=0;exitDy=0;exitPerimeter=0;jumpStyle=arc;" edge="1" parent="1" source="TJQ8qajKtdntS8sscnsx-60" target="TJQ8qajKtdntS8sscnsx-40">
          <mxGeometry width="50" height="50" relative="1" as="geometry">
            <mxPoint y="1910" as="sourcePoint" />
            <mxPoint x="40" y="1500" as="targetPoint" />
            <Array as="points">
              <mxPoint x="-7" y="1910" />
              <mxPoint x="100" y="1910" />
              <mxPoint x="100" y="1640" />
              <mxPoint x="100" y="1380" />
              <mxPoint x="-850" y="1380" />
            </Array>
          </mxGeometry>
        </mxCell>
        <mxCell id="XVqcR1sWWXOx4bEpBNZz-3" value="" style="endArrow=none;html=1;rounded=0;startArrow=classic;startFill=1;endFill=0;" edge="1" parent="1">
          <mxGeometry width="50" height="50" relative="1" as="geometry">
            <mxPoint x="-830" y="1282" as="sourcePoint" />
            <mxPoint x="420" y="872" as="targetPoint" />
            <Array as="points">
              <mxPoint x="-830" y="1302" />
              <mxPoint x="-300" y="1300" />
              <mxPoint x="230" y="1290" />
              <mxPoint x="230" y="1002" />
              <mxPoint x="230" y="902" />
              <mxPoint x="330" y="902" />
              <mxPoint x="420" y="902" />
            </Array>
          </mxGeometry>
        </mxCell>
        <mxCell id="XVqcR1sWWXOx4bEpBNZz-4" value="" style="endArrow=classic;html=1;rounded=0;exitX=0.813;exitY=0.925;exitDx=0;exitDy=0;exitPerimeter=0;entryX=0.066;entryY=1.075;entryDx=0;entryDy=0;entryPerimeter=0;" edge="1" parent="1" target="TJQ8qajKtdntS8sscnsx-17">
          <mxGeometry width="50" height="50" relative="1" as="geometry">
            <mxPoint x="506.9079999999999" y="867" as="sourcePoint" />
            <mxPoint x="-900" y="510" as="targetPoint" />
            <Array as="points">
              <mxPoint x="507" y="880" />
              <mxPoint y="880" />
              <mxPoint y="560" />
              <mxPoint x="-303" y="560" />
              <mxPoint x="-893" y="560" />
            </Array>
          </mxGeometry>
        </mxCell>
        <mxCell id="XVqcR1sWWXOx4bEpBNZz-6" value="" style="endArrow=classic;html=1;rounded=0;exitX=0.121;exitY=1.033;exitDx=0;exitDy=0;exitPerimeter=0;" edge="1" parent="1" source="TJQ8qajKtdntS8sscnsx-104">
          <mxGeometry width="50" height="50" relative="1" as="geometry">
            <mxPoint x="270" y="1050" as="sourcePoint" />
            <mxPoint x="-870" y="2030" as="targetPoint" />
            <Array as="points">
              <mxPoint x="285" y="1060" />
              <mxPoint x="150" y="1060" />
              <mxPoint x="150" y="2060" />
              <mxPoint x="120" y="2060" />
              <mxPoint x="50" y="2060" />
              <mxPoint x="-80" y="2060" />
              <mxPoint x="-350" y="2060" />
              <mxPoint x="-870" y="2060" />
            </Array>
          </mxGeometry>
        </mxCell>
        <mxCell id="XVqcR1sWWXOx4bEpBNZz-7" value="" style="endArrow=classic;html=1;rounded=0;entryX=0.22;entryY=-0.083;entryDx=0;entryDy=0;entryPerimeter=0;" edge="1" parent="1" target="TJQ8qajKtdntS8sscnsx-17">
          <mxGeometry width="50" height="50" relative="1" as="geometry">
            <mxPoint x="410" y="1010" as="sourcePoint" />
            <mxPoint x="-20" y="850" as="targetPoint" />
            <Array as="points">
              <mxPoint x="410" y="1040" />
              <mxPoint x="-250" y="1040" />
              <mxPoint x="-250" y="420" />
              <mxPoint x="-831" y="430" />
            </Array>
          </mxGeometry>
        </mxCell>
        <mxCell id="XVqcR1sWWXOx4bEpBNZz-8" value="" style="endArrow=classic;html=1;rounded=0;entryX=0.273;entryY=0;entryDx=0;entryDy=0;entryPerimeter=0;" edge="1" parent="1" target="TJQ8qajKtdntS8sscnsx-17">
          <mxGeometry width="50" height="50" relative="1" as="geometry">
            <mxPoint x="400" y="190" as="sourcePoint" />
            <mxPoint x="120" y="220" as="targetPoint" />
            <Array as="points">
              <mxPoint x="400" y="290" />
              <mxPoint x="-200" y="290" />
              <mxPoint x="-200" y="400" />
              <mxPoint x="-810" y="400" />
            </Array>
          </mxGeometry>
        </mxCell>
        <mxCell id="XVqcR1sWWXOx4bEpBNZz-9" value="" style="endArrow=classic;html=1;rounded=0;exitX=0.072;exitY=1.171;exitDx=0;exitDy=0;exitPerimeter=0;" edge="1" parent="1">
          <mxGeometry width="50" height="50" relative="1" as="geometry">
            <mxPoint x="-861.1760000000002" y="1491.4460000000001" as="sourcePoint" />
            <mxPoint x="-920" y="487" as="targetPoint" />
            <Array as="points">
              <mxPoint x="-861" y="1517" />
              <mxPoint x="-980" y="1517" />
              <mxPoint x="-990" y="487" />
            </Array>
          </mxGeometry>
        </mxCell>
        <mxCell id="XVqcR1sWWXOx4bEpBNZz-10" value="" style="endArrow=classic;html=1;rounded=0;" edge="1" parent="1">
          <mxGeometry width="50" height="50" relative="1" as="geometry">
            <mxPoint x="-750" y="1490" as="sourcePoint" />
            <mxPoint x="-920" y="1260" as="targetPoint" />
            <Array as="points">
              <mxPoint x="-750" y="1540" />
              <mxPoint x="-880" y="1540" />
              <mxPoint x="-1020" y="1540" />
              <mxPoint x="-1020" y="1260" />
            </Array>
          </mxGeometry>
        </mxCell>
        <mxCell id="XVqcR1sWWXOx4bEpBNZz-11" value="" style="endArrow=classic;html=1;rounded=0;entryX=0.13;entryY=0.952;entryDx=0;entryDy=0;entryPerimeter=0;exitX=0.923;exitY=0.99;exitDx=0;exitDy=0;exitPerimeter=0;" edge="1" parent="1" source="TJQ8qajKtdntS8sscnsx-46" target="TJQ8qajKtdntS8sscnsx-54">
          <mxGeometry width="50" height="50" relative="1" as="geometry">
            <mxPoint x="-560" y="1660" as="sourcePoint" />
            <mxPoint x="-510" y="1610" as="targetPoint" />
            <Array as="points">
              <mxPoint x="-170" y="1760" />
              <mxPoint x="-865" y="1760" />
            </Array>
          </mxGeometry>
        </mxCell>
        <mxCell id="XVqcR1sWWXOx4bEpBNZz-12" value="" style="endArrow=classic;html=1;rounded=0;exitX=0.769;exitY=1.051;exitDx=0;exitDy=0;exitPerimeter=0;" edge="1" parent="1" source="TJQ8qajKtdntS8sscnsx-46">
          <mxGeometry width="50" height="50" relative="1" as="geometry">
            <mxPoint x="-924" y="830" as="sourcePoint" />
            <mxPoint x="-874" y="780" as="targetPoint" />
            <Array as="points">
              <mxPoint x="-292" y="1590" />
              <mxPoint x="-960" y="1590" />
              <mxPoint x="-960" y="1280" />
              <mxPoint x="-960" y="840" />
              <mxPoint x="-874" y="840" />
            </Array>
          </mxGeometry>
        </mxCell>
      </root>
    </mxGraphModel>
  </diagram>
</mxfile>
